<svg width="812" height="834" viewBox="0 0 812 834" fill="none" xmlns="http://www.w3.org/2000/svg">
<g filter="url(#filter0_f_9_5965)">
<path d="M141.76 383.082L169.113 347.451C177.67 336.304 191.272 330.226 205.284 331.287L207.093 331.424C231.609 333.281 248.691 356.569 243.097 380.511C239.474 396.016 245.373 412.195 258.126 421.731L265.21 427.028C285.948 442.534 314.805 441.001 333.784 423.385L343.365 414.492C361.101 398.03 386.141 392.014 409.42 398.622L425.197 403.1C489.52 421.36 517.315 497.059 480.091 552.604L412.093 654.068C388.72 688.945 344.026 702.548 305.186 686.607L196.969 642.194C170.862 631.479 169.047 595.196 193.955 581.93C214.695 570.883 217.803 542.42 199.935 527.158L152.644 486.763C122.014 460.6 117.231 415.036 141.76 383.082Z" fill="url(#paint0_linear_9_5965)"/>
<path d="M276.09 331.448L277.252 374.697C277.595 387.457 286.433 398.228 300.329 402.822C323.162 410.37 351.338 398.987 360.615 378.466L363.488 372.11C370.063 357.565 385.38 346.178 403.484 342.373L407.161 341.601C437.033 335.324 464.891 348.949 470.476 372.568L472.436 380.858C477.279 401.34 496.497 416.27 521.796 419.206L545.687 421.978C611.623 429.628 676.606 384.036 679.282 328.248L685.298 202.865C687.314 160.84 649.91 128.289 599.009 127.773L490.832 126.674C458.594 126.347 434.597 155.873 448.868 178.307C460.551 196.672 446.551 221.287 420.481 228.215L351.932 246.433C306.991 258.376 275.088 294.137 276.09 331.448Z" fill="url(#paint1_linear_9_5965)"/>
</g>
<path d="M368.024 263.816L386.504 260.697C389.246 261.527 391.422 264.746 392.536 269.607C393.799 275.132 393.583 282.084 391.921 289.168C388.647 303.155 380.505 313.707 374.107 312.214C374.024 312.197 373.957 312.181 373.874 312.181L354.614 310.389C359.433 307.021 364.202 300.948 367.626 293.167C370.517 286.613 371.98 279.877 371.747 274.186C371.581 269.557 370.268 265.973 368.024 263.816Z" fill="#561E77"/>
<path d="M367.642 293.184C369.204 289.633 370.334 286.033 371.032 282.565C378.677 281.735 386.204 280.292 393.35 277.14C393.367 280.939 392.918 285.037 391.938 289.185C388.664 303.172 380.521 313.724 374.123 312.231C374.04 312.214 373.974 312.197 373.891 312.197L354.63 310.406C359.45 307.037 364.202 300.965 367.642 293.184Z" fill="#4F0F75"/>
<path d="M409.37 292.951C409.37 307.618 402.291 389.729 402.208 390.559C402.191 390.841 400.463 412.626 377.43 435.19C393.599 414.799 394.779 396.548 394.846 395.57C395.128 392.235 402.008 312.529 402.008 297.73C402.008 290.081 400.064 282.134 396.707 275.879C396.624 273.39 396.341 271.034 395.843 268.86C395.195 265.99 394.181 263.634 392.918 261.759C404.783 266.04 409.37 282.2 409.37 292.951Z" fill="#4F0F75"/>
<path d="M338.245 397.461C326.247 401.874 313.9 393.512 310.809 391.173C310.825 391.156 310.825 391.139 310.842 391.123C313.9 387.639 332.828 386.759 344.211 387.008C342.732 392.716 340.771 396.532 338.245 397.461Z" fill="#4C0378"/>
<path d="M350.908 313.442L373.459 315.532C374.073 315.665 374.672 315.731 375.303 315.731C383.23 315.731 391.705 304.997 395.228 289.932C395.727 287.808 396.092 285.684 396.341 283.61C397.82 288.057 398.635 292.935 398.635 297.713C398.635 312.38 391.556 394.491 391.472 395.321C391.456 395.669 389.462 425.351 356.841 450.687C331.432 463.611 310.161 451.068 305.973 448.281L310.41 395.055C315.462 398.506 327.311 405.06 339.408 400.613C354.863 394.956 351.54 324.624 350.908 313.442Z" fill="#561E77"/>
<path d="M305.956 448.297L310.393 395.072C313.168 396.963 317.988 399.784 323.787 401.227C326.712 421.021 335.137 440.483 348.93 453.972C327.128 461.056 309.695 450.786 305.956 448.297Z" fill="#4F0F75"/>
<path d="M318.985 457.738C319.217 459.364 320.065 467.743 313.301 469.535C309.546 470.53 305.657 471.575 304.112 475.142C302.167 479.622 304.527 487.337 312.254 501.772C324.336 524.32 351.556 579.437 357.605 591.681H350.625C346.571 583.452 317.19 523.888 304.494 500.179C297.597 487.304 295.055 479.771 296.484 476.486C297.315 474.562 299.791 473.782 303.447 472.803C312.471 470.397 313.069 458.7 313.069 455.697C314.847 456.427 316.808 457.124 318.985 457.738Z" fill="#4C0378"/>
<path d="M361.361 591.681C357.306 583.451 327.925 523.888 315.229 500.179C308.333 487.304 305.79 479.771 307.219 476.486C308.05 474.561 310.526 473.782 314.182 472.803C321.511 470.845 322.84 463.429 322.491 458.6C325.915 459.33 329.654 459.812 333.708 459.812C341.037 459.812 349.279 458.252 357.971 453.905C358.187 453.855 358.386 453.772 358.569 453.623C358.602 453.606 358.619 453.573 358.652 453.557C362.075 451.781 365.582 449.591 369.121 446.87C380.671 437.961 388.564 428.819 393.965 420.573L402.523 442.391C397.538 441.826 385.49 441.047 379.258 445.576C377.048 447.185 375.735 449.293 375.353 451.848C373.475 464.358 407.758 472.056 414.787 473.483C425.207 495.815 443.104 524.85 470.324 540.579L488.372 581.908L442.772 578.076C440.047 569.714 426.802 529.877 419.258 524.087C397.272 507.197 376.184 499.449 356.591 501.091C347.418 501.854 341.236 504.957 338.228 510.316C333.276 519.093 338.86 530.458 339.109 530.939L368.373 591.681H361.361Z" fill="#4A136B"/>
<path d="M325.084 468.472C323.455 468.472 321.843 468.506 320.231 468.555C322.275 465.502 322.707 461.57 322.491 458.6C325.915 459.33 329.654 459.812 333.708 459.812C341.037 459.812 349.279 458.252 357.971 453.905C358.187 453.855 358.386 453.772 358.569 453.623C358.602 453.606 358.619 453.573 358.652 453.557C362.075 451.781 365.582 449.591 369.121 446.87C380.671 437.961 388.564 428.819 393.965 420.573L402.523 442.391C397.538 441.826 385.49 441.047 379.258 445.576C377.048 447.185 375.735 449.293 375.353 451.848C373.475 464.358 407.758 472.056 414.787 473.483C425.207 495.815 443.104 524.85 470.324 540.579L488.371 581.908L471.371 580.481C469.327 573.944 417.546 471.392 325.084 468.472Z" fill="#4C0378"/>
<path d="M354.797 268.363C357.489 266.09 360.114 264.878 362.291 264.878C363.006 264.878 363.671 265.011 364.269 265.277C366.695 266.338 368.207 269.64 368.39 274.336C368.589 279.512 367.227 285.734 364.551 291.823C358.718 305.063 349.612 311.683 344.776 309.559C339.924 307.436 338.661 296.253 344.493 283.013C347.169 276.924 350.825 271.714 354.797 268.363Z" fill="#4F0F75"/>
<path d="M441.509 648.308C341.552 648.308 288.873 628 280.199 618.725C279.318 617.779 279.019 617.099 279.019 616.75V616.701C279.467 610.578 293.393 605.618 298.827 604.323L294.523 609.583C293.958 610.28 294.025 611.309 294.706 611.906C295.67 612.769 319.783 633.226 436.092 636.776C444.766 637.042 452.992 637.158 460.753 637.158C557.137 637.158 585.703 618.26 586.949 617.398C587.697 616.883 587.913 615.855 587.398 615.091L580.435 604.423C586.102 605.866 599.379 610.728 599.811 616.684V616.9C599.828 618.426 598.814 620.384 597.003 622.342C589.691 630.156 559.895 648.308 441.509 648.308Z" fill="#4A136B"/>
<path d="M442.273 643.944C343.862 643.944 292.014 623.636 283.456 614.361C282.592 613.416 282.292 612.735 282.292 612.387V612.337C282.741 606.215 296.451 601.254 301.785 599.96L297.548 605.219C296.983 605.916 297.066 606.945 297.731 607.542C298.678 608.405 322.425 628.862 436.922 632.413C445.464 632.678 453.557 632.795 461.201 632.795C556.09 632.795 584.207 613.897 585.453 613.034C586.201 612.52 586.401 611.491 585.902 610.728L579.056 600.06C584.639 601.503 597.701 606.364 598.133 612.321V612.536C598.15 614.063 597.152 616.02 595.374 617.978C588.162 625.776 558.832 643.944 442.273 643.944Z" fill="#4C0378"/>
<path d="M441.509 651.692C561.225 651.692 591.868 632.795 599.479 624.665C599.612 624.532 599.695 624.399 599.811 624.267V635.3C599.911 636.959 598.897 639.016 597.003 641.024C589.691 648.822 559.895 666.99 441.492 666.99C341.535 666.99 288.857 646.682 280.182 637.407C279.285 636.445 278.985 635.748 279.002 635.399V622.226C291.216 632.596 343.38 651.692 441.509 651.692Z" fill="#4C0378"/>
<path d="M424.741 184.626C385.49 199.093 356.408 223.781 349.146 246.147C347.95 238.764 346.355 228.908 346.338 228.775C342.948 207.671 344.776 186.716 351.49 169.76C359.217 150.265 375.187 134.685 397.704 124.714C418.51 115.505 445.331 115.788 466.07 125.427C482.04 132.86 495.916 146.532 507.316 166.06C509.526 169.843 511.62 173.808 513.697 178.105C508.313 176.098 502.098 174.687 495.102 173.941C474.396 171.734 449.419 175.533 424.741 184.626Z" fill="#35012C"/>
<path d="M436.191 633.408C335.919 630.339 304.66 614.378 298.296 610.33L312.72 592.693C322.874 605.286 392.769 609.965 440.911 609.965C488.754 609.965 558.051 605.352 568.902 592.942L583.592 615.456C576.164 619.472 538.159 636.528 436.191 633.408Z" fill="#4A136B"/>
<path d="M568.902 592.942L583.592 615.457C576.147 619.455 538.142 636.528 436.175 633.409C431.289 633.259 426.586 633.077 422.016 632.878C438.152 626.772 453.59 619.057 467.865 609.517C511.437 608.09 559.962 603.162 568.902 592.942Z" fill="#4C0378"/>
<path d="M417.546 471.393C412.976 458.833 444.783 431.872 499.489 411.696C554.228 391.521 595.973 391.388 600.642 403.932C616.047 451.682 619.769 514.116 550.157 540.529C476.274 570.062 435.36 509.935 417.546 471.393Z" fill="#35012C"/>
<path d="M563.269 281.387C566.708 281.32 575.2 282.465 578.374 294.859C579.288 298.459 579.039 301.479 577.626 303.835C576.048 306.457 573.389 307.668 572.192 308.099L563.269 281.387Z" fill="#561E77"/>
<path d="M440.911 606.58C362.806 606.58 314.847 596.625 314.847 589.491C314.847 588.96 315.611 584.248 340.854 579.536C345.141 588.18 347.95 593.92 348.05 594.103C348.332 594.684 348.93 595.049 349.562 595.049H360.314H371.065C371.647 595.049 372.195 594.75 372.495 594.252C372.81 593.755 372.844 593.141 372.594 592.626L364.634 576.118C385.772 573.795 410.815 572.518 437.321 572.401C438.351 575.404 439.232 578.059 439.897 580.166C440.113 580.813 440.678 581.278 441.359 581.328L490.914 585.509C490.947 585.509 490.964 585.509 490.997 585.509C491.014 585.509 491.03 585.525 491.063 585.525C491.08 585.525 491.113 585.509 491.13 585.509C491.296 585.509 491.462 585.475 491.629 585.426C491.645 585.426 491.645 585.426 491.662 585.426L491.728 585.409C491.745 585.392 491.778 585.392 491.795 585.392L504.989 580.481C505.421 580.315 505.77 579.984 505.953 579.552C506.136 579.121 506.136 578.64 505.937 578.208L504.441 574.857C553.813 578.955 566.974 586.222 566.974 589.524C566.991 596.641 519.031 606.58 440.911 606.58Z" fill="#561E77"/>
<path d="M440.911 602.117C362.806 602.117 314.847 593.473 314.847 587.267C314.847 586.803 315.611 582.705 340.854 578.623C345.141 586.139 347.95 591.117 348.05 591.282C348.332 591.78 348.93 592.095 349.562 592.095H360.314H371.065C371.647 592.095 372.195 591.83 372.495 591.415C372.81 590.984 372.844 590.453 372.594 590.005L364.634 575.67C385.772 573.646 410.815 572.534 437.321 572.435C438.351 575.039 439.232 577.346 439.897 579.171C440.113 579.735 440.678 580.133 441.359 580.183L490.914 583.816C490.947 583.816 490.964 583.816 490.997 583.816C491.014 583.816 491.03 583.816 491.063 583.816C491.08 583.816 491.113 583.8 491.13 583.8C491.296 583.8 491.462 583.767 491.629 583.717C491.645 583.717 491.645 583.717 491.662 583.717L491.728 583.7C491.745 583.7 491.778 583.684 491.795 583.684L504.989 579.403C505.421 579.27 505.77 578.972 505.953 578.59C506.136 578.208 506.136 577.794 505.937 577.429L504.441 574.525C553.813 578.092 566.974 584.397 566.974 587.267C566.991 593.473 519.031 602.117 440.911 602.117Z" fill="#4C0378"/>
<path d="M498.326 408.528C453.64 425.003 420.454 447.534 414.638 463.993L396.192 416.989C404.7 402.522 405.548 391.538 405.598 390.808C405.88 387.456 412.76 307.751 412.76 292.951C412.76 275.663 403.587 257.28 386.587 257.28C386.537 257.28 386.487 257.296 386.454 257.313C386.404 257.313 386.354 257.296 386.304 257.313L361.527 261.477C361.46 261.494 361.394 261.527 361.327 261.56C358.585 261.826 355.611 263.253 352.603 265.791C352.586 265.808 352.57 265.824 352.537 265.841L352.171 264.663C343.247 240.522 376.333 206.078 425.905 187.795C450.1 178.868 474.545 175.152 494.736 177.292C514.495 179.399 527.723 186.866 531.96 198.314L598.166 396.466C583.11 387.639 543.128 392.019 498.326 408.528Z" fill="#4C0378"/>
<path d="M547.382 362.486C537.195 373.105 518.616 373.038 505.986 368.841C488.637 363.084 479.099 348.433 473.349 338.644C444.434 289.451 424.043 215.071 417.729 191.03C419.457 190.3 422.332 189.122 425.905 187.795C450.1 178.868 474.545 175.152 494.736 177.292C503.527 178.221 511.022 180.229 517.004 183.166C529.567 221.492 544.158 271.416 552.949 320.361C555.175 332.705 558.15 351.287 547.382 362.486Z" fill="#691F95"/>
<path d="M475.144 543.167C479.547 545.358 484.167 547.216 489.02 548.643L502.114 577.927L491.978 581.709L475.144 543.167Z" fill="#4F0F75"/>
<path d="M386.587 258.972C403.304 258.972 411.065 278.052 411.065 292.951C411.065 307.85 403.902 390.708 403.902 390.708C403.902 390.708 402.108 419.312 368.074 445.543C334.041 471.774 304.195 449.127 304.195 449.127L308.964 391.903C308.964 391.903 323.904 404.545 338.81 399.053C353.932 393.495 349.163 312.828 349.163 312.828" stroke="#35012C" stroke-width="4" stroke-miterlimit="10" stroke-linecap="round" stroke-linejoin="round"/>
<path d="M395.095 276.442C398.618 282.863 400.313 290.744 400.313 297.713C400.313 312.612 393.151 395.47 393.151 395.47C393.151 395.47 391.555 426.064 357.522 452.295" stroke="#35012C" stroke-width="4" stroke-miterlimit="10" stroke-linecap="round" stroke-linejoin="round"/>
<path d="M342.931 282.333C337.165 295.407 337.68 308.298 344.078 311.102C350.476 313.906 360.33 305.577 366.097 292.503C371.863 279.429 371.348 266.538 364.95 263.734C358.552 260.93 348.698 269.259 342.931 282.333Z" stroke="#35012C" stroke-width="4" stroke-miterlimit="10" stroke-linecap="round" stroke-linejoin="round"/>
<path d="M361.809 263.153L386.587 258.988C393.998 260.714 397.122 274.418 393.583 289.566C390.026 304.731 381.136 315.615 373.724 313.873L349.578 311.633" stroke="#35012C" stroke-width="4" stroke-miterlimit="10" stroke-linecap="round" stroke-linejoin="round"/>
<path d="M308.964 391.903C307.768 384.453 344.493 385.349 344.493 385.349" stroke="#35012C" stroke-width="4" stroke-miterlimit="10" stroke-linecap="round" stroke-linejoin="round"/>
<path d="M394.347 416.939L415.967 472.006C410.334 456.775 447.475 429.067 498.907 410.103C550.34 391.139 596.604 388.12 602.238 403.351L533.539 197.733C524.299 172.746 475.842 167.586 425.323 186.201C374.788 204.834 341.319 240.19 350.559 265.177L351.656 268.661" stroke="#35012C" stroke-width="4" stroke-miterlimit="10" stroke-linecap="round" stroke-linejoin="round"/>
<path d="M348.764 254.409L344.659 229.041C341.519 209.513 342.582 187.612 349.911 169.129C358.452 147.543 376.084 132.429 397.006 123.171C418.277 113.763 445.68 114.095 466.768 123.901C485.098 132.429 498.724 148.041 508.762 165.213C511.504 169.925 514.013 174.77 516.323 179.698" stroke="#35012C" stroke-width="4" stroke-miterlimit="10" stroke-linecap="round" stroke-linejoin="round"/>
<path d="M561.507 279.844C561.507 279.844 575.615 277.272 580.019 294.444C583.31 307.253 571.96 309.941 571.96 309.941" stroke="#35012C" stroke-width="4" stroke-miterlimit="10" stroke-linecap="round" stroke-linejoin="round"/>
<path d="M320.314 457.472C320.314 457.472 322.707 468.804 313.75 471.177C304.793 473.566 300.024 475.341 313.75 500.975C327.477 526.609 360.314 593.373 360.314 593.373H371.065L340.621 530.193C340.621 530.193 328.091 505.156 356.741 502.767C385.39 500.378 410.467 519.458 418.227 525.414C425.988 531.371 441.509 579.652 441.509 579.652L491.064 583.816L472.551 540.894" stroke="#35012C" stroke-width="4" stroke-miterlimit="10" stroke-linecap="round" stroke-linejoin="round"/>
<path d="M311.357 455.083C311.357 455.083 311.956 468.788 302.998 471.177C294.041 473.566 289.272 475.341 302.998 500.975C316.725 526.609 349.562 593.373 349.562 593.373H360.314" stroke="#35012C" stroke-width="4" stroke-miterlimit="10" stroke-linecap="round" stroke-linejoin="round"/>
<path d="M404.501 444.348C404.501 444.348 378.826 440.184 377.031 452.096C375.237 464.026 415.967 472.006 415.967 472.006C436.523 516.488 479.016 570.775 550.772 542.105C623.01 514.679 617.293 449.973 602.237 403.351" stroke="#35012C" stroke-width="4" stroke-miterlimit="10" stroke-linecap="round" stroke-linejoin="round"/>
<path d="M438.518 570.726C409.835 570.809 383.462 572.269 362.374 574.691" stroke="#35012C" stroke-width="4" stroke-miterlimit="10" stroke-linecap="round" stroke-linejoin="round"/>
<path d="M341.768 577.661C323.87 580.896 313.152 585.011 313.152 589.507C313.152 599.877 370.351 608.289 440.911 608.289C511.47 608.289 568.669 599.877 568.669 589.507C568.669 582.356 542.263 576.151 502.413 572.982" stroke="#35012C" stroke-width="4" stroke-miterlimit="10" stroke-linecap="round" stroke-linejoin="round"/>
<path d="M568.669 589.507L585.985 616.037C585.985 616.037 553.148 638.684 436.125 635.117C319.101 631.534 295.819 610.678 295.819 610.678L313.135 589.524" stroke="#35012C" stroke-width="4" stroke-miterlimit="10" stroke-linecap="round" stroke-linejoin="round"/>
<path d="M300.605 602.316C298.811 602.316 277.922 607.675 277.324 616.618C276.725 625.56 331.648 650 441.509 650C578.225 650 602.105 625.56 601.506 616.618C600.908 607.675 580.019 602.316 578.225 602.316" stroke="#35012C" stroke-width="4" stroke-miterlimit="10" stroke-linecap="round" stroke-linejoin="round"/>
<path d="M277.324 616.618V635.3C276.725 644.242 331.648 668.682 441.509 668.682C578.225 668.682 602.105 644.242 601.506 635.3V616.618" stroke="#35012C" stroke-width="4" stroke-miterlimit="10" stroke-linecap="round" stroke-linejoin="round"/>
<path d="M491.064 583.833L504.391 578.872L490.266 547.282" stroke="#35012C" stroke-width="4" stroke-miterlimit="10" stroke-linecap="round" stroke-linejoin="round"/>
<g opacity="0.35" filter="url(#filter1_f_9_5965)">
<ellipse cx="443" cy="685.5" rx="169" ry="28.5" fill="#4F0147"/>
</g>
<path d="M239.287 223.421L217.432 239.025L207.364 263.016L191.92 242.887L167.135 234.357L188.989 218.753L199.058 194.762L214.501 214.891L239.287 223.421Z" fill="#4C0378"/>
<path d="M649 362.414L642.072 370.477L640.586 381L632.523 374.072L622 372.586L628.928 364.523L630.414 354L638.477 360.928L649 362.414Z" fill="#4F0147"/>
<path d="M622.951 213.904L608.367 210.06L618.563 221.175L606.565 212.029L611.713 226.193L604.138 213.168L603.484 228.218L601.478 213.285L595.096 226.951L598.94 212.367L587.829 222.543L596.971 210.565L582.807 215.713L595.832 208.139L580.782 207.484L595.715 205.478L582.049 199.096L596.633 202.94L586.437 191.825L598.435 200.971L593.287 186.807L600.862 199.832L601.52 184.762L603.526 199.695L609.904 186.049L606.064 200.613L617.175 190.437L608.033 202.415L622.197 197.267L609.168 204.862L624.238 205.52L609.285 207.522L622.951 213.904Z" fill="#E9BD10"/>
<path d="M267 556.932L242.145 555.385L262.224 570.116L239.858 559.152L252.739 580.441L236.293 561.775L240.06 586.361L232.021 562.818L226.068 587L227.615 562.145L212.884 582.19L223.848 559.858L202.559 572.739L221.225 556.293L196.605 560.06L220.182 552.021L196 546.068L220.855 547.615L200.776 532.884L223.108 543.848L210.227 522.559L226.707 541.225L222.94 516.605L230.979 540.149L236.932 516L235.385 540.821L250.116 520.776L239.152 543.108L260.441 530.227L241.775 546.707L266.361 542.94L242.818 550.979L267 556.932Z" fill="#EDA2DC"/>
<path d="M278.044 111.28C268.629 94.8469 266.888 78.157 326.043 44.2684C373.69 16.9721 388.253 26.3171 397.667 42.7507C407.082 59.1843 406.707 77.0867 360.13 103.77C348.61 110.369 338.761 115.232 330.261 118.697C332.491 125.805 339.226 148.279 336.58 153.277C334.185 157.811 316.15 135.945 307.622 125.205C291.417 127.264 283.439 120.699 278.044 111.28Z" fill="#FCFCFC"/>
<path d="M373.591 65.2501C375.172 68.0101 378.829 68.8937 381.748 67.2213C384.667 65.5488 385.755 61.9474 384.174 59.1874C382.592 56.4274 378.936 55.5437 376.016 57.2162C373.085 58.8957 372.01 62.4901 373.591 65.2501Z" fill="#35012C"/>
<path d="M352.218 77.494C353.233 79.265 355.57 79.8199 357.431 78.7537C359.304 77.6805 359.989 75.3789 358.981 73.6194C357.967 71.8484 355.629 71.2935 353.768 72.3597C351.9 73.4144 351.203 75.723 352.218 77.494Z" fill="#35012C"/>
<path d="M329.617 90.442C330.427 91.8565 332.302 92.3096 333.798 91.4525C335.295 90.5953 335.852 88.7484 335.042 87.3339C334.232 85.9194 332.356 85.4663 330.86 86.3234C329.364 87.1806 328.806 89.0274 329.617 90.442Z" fill="#35012C"/>
<defs>
<filter id="filter0_f_9_5965" x="-55" y="-99" width="948" height="984" filterUnits="userSpaceOnUse" color-interpolation-filters="sRGB">
<feFlood flood-opacity="0" result="BackgroundImageFix"/>
<feBlend mode="normal" in="SourceGraphic" in2="BackgroundImageFix" result="shape"/>
<feGaussianBlur stdDeviation="63" result="effect1_foregroundBlur_9_5965"/>
</filter>
<filter id="filter1_f_9_5965" x="154" y="537" width="578" height="297" filterUnits="userSpaceOnUse" color-interpolation-filters="sRGB">
<feFlood flood-opacity="0" result="BackgroundImageFix"/>
<feBlend mode="normal" in="SourceGraphic" in2="BackgroundImageFix" result="shape"/>
<feGaussianBlur stdDeviation="60" result="effect1_foregroundBlur_9_5965"/>
</filter>
<linearGradient id="paint0_linear_9_5965" x1="109.969" y1="329.7" x2="362.643" y2="779.87" gradientUnits="userSpaceOnUse">
<stop stop-color="#35012C"/>
<stop offset="0.192708" stop-color="#0F555C"/>
<stop offset="0.411458" stop-color="#691F95"/>
<stop offset="0.65625" stop-color="#4C0378"/>
<stop offset="0.869792" stop-color="#840D75"/>
<stop offset="1" stop-color="#197199"/>
</linearGradient>
<linearGradient id="paint1_linear_9_5965" x1="403.55" y1="448.801" x2="562.389" y2="74.9521" gradientUnits="userSpaceOnUse">
<stop stop-color="#EDA2DC"/>
<stop offset="0.192708" stop-color="#008B9A"/>
<stop offset="0.411458" stop-color="#691F95"/>
<stop offset="0.65625" stop-color="#4C0378"/>
<stop offset="0.869792" stop-color="#840D75"/>
<stop offset="1" stop-color="#E9BD10"/>
</linearGradient>
</defs>
</svg>
